<svg xmlns="http://www.w3.org/2000/svg" width="100%" height="132%" viewBox="0 0 124 164" fill="none">
  <path style="stroke:#000;stroke-width:10" d="M64 15v100"/>
  <circle cx="62" cy="62" r="52" fill="none" stroke="#000" stroke-width="10"/>
  
  <g transform="translate(27, 50) scale(1.5)">
    <path d="M15 12a7 7 0 1 1-14 0C1 6 8 1 8 1s7 5 7 11" fill-opacity=".8" fill="#00f" stroke="#000" stroke-linecap="round" stroke-linejoin="round" stroke-width="2"/>
  </g>

    <g transform="translate(77, 30) scale(1.5)">
    <path d="M15 12a7 7 0 1 1-14 0C1 6 8 1 8 1s7 5 7 11" fill-opacity=".8" fill="#00f" stroke="#000" stroke-linecap="round" stroke-linejoin="round" stroke-width="2"/>
  </g>

    <g transform="translate(77, 63) scale(1.5)">
    <path d="M15 12a7 7 0 1 1-14 0C1 6 8 1 8 1s7 5 7 11" fill-opacity=".8" fill="#00f" stroke="#000" stroke-linecap="round" stroke-linejoin="round" stroke-width="2"/>
  </g>
  
  <text x="0" y="160" fill="black" font-size="x-large">Dual Flush</text>
</svg>
